:FULLY-SPECIFIED
:FORCE-ALL-JOINTS-BE-3DOF
:DEGREES
679
root 5.36457 16.3769 0.966495 16.1751 -23.1357 0.936992
lfemur -33.2515 24.9699 -9.81808
ltibia 96.1609 -0 0
lfoot 7.70542 -4.68462 0.452854
ltoes 6.84514 -0 0
rfemur -34.9215 -13.4347 25.0349
rtibia 50.0716 -0 0
rfoot -17.2825 -4.76053 0.785105
rtoes 1.04736 -0 0
lowerback -0.119709 -6.28589 -0.670565
upperback -1.99925 -8.42274 0.292295
thorax -1.82788 -4.19516 0.764028
lowerneck -9.30623 -4.17802 0.411252
upperneck 2.22286 -5.77195 2.93971
head 2.38423 -2.79152 0.585857
lclavicle 8.42544e-15 9.35379e-16 2.59947e-30
lhumerus 21.2212 -62.806 51.1588
lradius 87.0011 -0 0
lwrist 28.8419 0 0
lhand -14.7329 -2.00732 0.0707866
lfingers 7.12502 -0 0
lthumb 11.4213 27.6361 0.0659254
rclavicle 8.42544e-15 9.35379e-16 2.59947e-30
rhumerus -49.3874 -11.6696 -40.0674
rradius 75.0961 -0 0
rwrist -18.2379 0 0
rhand -29.1836 -46.8943 -0.090279
rfingers 7.12502 -0 0
rthumb -2.52869 -76.8404 -0.0885279
680
root 5.35602 16.4864 1.10378 15.9819 -24.6187 0.998694
lfemur -34.4294 24.3903 -7.27591
ltibia 99.3304 -0 0
lfoot 8.10764 -4.65962 0.463307
ltoes 8.49648 -0 0
rfemur -32.4955 -12.6634 24.121
rtibia 46.1121 -0 0
rfoot -15.6003 -3.99645 0.920076
rtoes 0.726239 -0 0
lowerback 0.0626549 -6.2047 -0.767867
upperback -1.98692 -8.32349 0.0926114
thorax -1.9339 -4.14369 0.634225
lowerneck -9.08712 -4.17759 0.410209
upperneck 2.39913 -5.7808 3.08969
head 2.40891 -2.79215 0.636579
lclavicle 6.02243e-15 2.63573e-15 2.99307e-30
lhumerus 24.504 -60.6061 46.3641
lradius 87.0321 -0 0
lwrist 29.0157 0 0
lhand -15.2686 -2.37013 0.0815561
lfingers 7.12502 -0 0
lthumb 10.9045 27.2973 0.0758044
rclavicle 6.02243e-15 2.63573e-15 2.99307e-30
rhumerus -48.8811 -11.4102 -38.0561
rradius 77.0145 -0 0
rwrist -17.7572 0 0
rhand -29.596 -46.5741 -0.104992
rfingers 7.12502 -0 0
rthumb -2.92693 -76.5125 -0.102908
681
root 5.34743 16.6023 1.24227 15.7789 -26.1302 1.06773
lfemur -35.6508 23.8144 -4.64673
ltibia 102.513 -0 0
lfoot 8.43333 -4.6009 0.458663
ltoes 10.2615 -0 0
rfemur -30.0274 -11.8545 23.2062
rtibia 42.0185 -0 0
rfoot -13.8061 -3.19499 1.03356
rtoes 0.406716 -0 0
lowerback 0.254466 -6.11273 -0.881046
upperback -1.97374 -8.21081 -0.118491
thorax -2.04426 -4.08553 0.502306
lowerneck -8.85786 -4.18452 0.406122
upperneck 2.58515 -5.80077 3.25683
head 2.4362 -2.79753 0.692886
lclavicle 3.408e-15 4.40639e-15 3.3118e-30
lhumerus 27.2763 -58.2137 41.9992
lradius 87.0223 -0 0
lwrist 29.1875 0 0
lhand -15.8108 -2.7382 0.0903391
lfingers 7.12502 -0 0
lthumb 10.3813 26.9529 0.0838206
rclavicle 3.408e-15 4.40639e-15 3.3118e-30
rhumerus -48.3102 -11.1465 -36.0264
rradius 78.9989 -0 0
rwrist -17.247 0 0
rhand -30.0276 -46.2375 -0.117604
rfingers 7.12502 -0 0
rthumb -3.34364 -76.168 -0.11521
682
root 5.33893 16.724 1.38225 15.5676 -27.6695 1.14434
lfemur -36.9021 23.248 -1.96064
ltibia 105.67 -0 0
lfoot 8.6907 -4.51521 0.440885
ltoes 12.1136 -0 0
rfemur -27.548 -11.0106 22.2994
rtibia 37.8585 -0 0
rfoot -11.9226 -2.37235 1.1194
rtoes 0.101732 -0 0
lowerback 0.454066 -6.01085 -1.00699
upperback -1.9599 -8.08581 -0.337904
thorax -2.15809 -4.0213 0.369417
lowerneck -8.6214 -4.19822 0.398737
upperneck 2.77713 -5.83094 3.43753
head 2.46523 -2.80727 0.753718
lclavicle 6.37491e-16 6.22896e-15 3.53919e-30
lhumerus 29.5582 -55.6691 38.0509
lradius 86.9671 -0 0
lwrist 29.3544 0 0
lhand -16.3557 -3.10785 0.0967495
lfingers 7.12502 -0 0
lthumb 9.85563 26.6065 0.0896232
rclavicle 6.37491e-16 6.22896e-15 3.53919e-30
rhumerus -47.6778 -10.8842 -33.9962
rradius 81.028 -0 0
rwrist -16.7141 0 0
rhand -30.471 -45.8867 -0.12755
rfingers 7.12502 -0 0
rthumb -3.77182 -75.8092 -0.124877
683
root 5.33062 16.8508 1.524 15.3493 -29.2363 1.22871
lfemur -38.1691 22.6944 0.752187
ltibia 108.765 -0 0
lfoot 8.88802 -4.40921 0.412085
ltoes 14.026 -0 0
rfemur -25.0875 -10.1358 21.4082
rtibia 33.6996 -0 0
rfoot -9.97289 -1.54514 1.17301
rtoes -0.175774 0 0
lowerback 0.659802 -5.89991 -1.14261
upperback -1.9456 -7.9496 -0.562525
thorax -2.27452 -3.95162 0.23671
lowerneck -8.38066 -4.2181 0.387805
upperneck 2.97132 -5.87032 3.62821
head 2.49512 -2.821 0.818012
lclavicle -2.2338e-15 8.08501e-15 3.66356e-30
lhumerus 31.3859 -53.014 34.4898
lradius 86.8622 -0 0
lwrist 29.5137 0 0
lhand -16.8992 -3.47533 0.100521
lfingers 7.12502 -0 0
lthumb 9.33118 26.2617 0.0929731
rclavicle -2.2338e-15 8.08501e-15 3.66356e-30
rhumerus -46.9877 -10.6285 -31.983
rradius 83.0804 -0 0
rwrist -16.1654 0 0
rhand -30.919 -45.5239 -0.134372
rfingers 7.12502 -0 0
rthumb -4.20444 -75.4383 -0.131467
684
root 5.32263 16.982 1.6678 15.1256 -30.8298 1.32096
lfemur -39.4367 22.1545 3.46154
ltibia 111.76 -0 0
lfoot 9.03347 -4.28956 0.374458
ltoes 15.9721 -0 0
rfemur -22.6753 -9.23559 20.5387
rtibia 29.6094 -0 0
rfoot -7.97989 -0.73036 1.19152
rtoes -0.412866 0 0
lowerback 0.870037 -5.78083 -1.2848
upperback -1.93101 -7.80332 -0.789253
thorax -2.39267 -3.87709 0.105337
lowerneck -8.13859 -4.24357 0.373081
upperneck 3.16393 -5.9179 3.8253
head 2.52498 -2.83833 0.884708
lclavicle -5.15055e-15 9.95613e-15 3.67839e-30
lhumerus 32.8023 -50.2898 31.2802
lradius 86.7033 -0 0
lwrist 29.6626 0 0
lhand -17.4375 -3.83694 0.10151
lfingers 7.12502 -0 0
lthumb 8.81179 25.9222 0.0937431
rclavicle -5.15055e-15 9.95613e-15 3.67839e-30
rhumerus -46.2442 -10.3837 -30.0047
rradius 85.1347 -0 0
rwrist -15.6076 0 0
rhand -31.3643 -45.1513 -0.137734
rfingers 7.12502 -0 0
rthumb -4.63445 -75.0577 -0.134654
685
root 5.31505 17.1167 1.81392 14.8979 -32.4498 1.42114
lfemur -40.6894 21.6266 6.13711
ltibia 114.616 -0 0
lfoot 9.13529 -4.16286 0.330249
ltoes 17.9253 -0 0
rfemur -20.3403 -8.31694 19.6957
rtibia 25.6555 -0 0
rfoot -5.96677 0.0547812 1.17389
rtoes -0.596597 0 0
lowerback 1.08315 -5.65451 -1.43049
upperback -1.91627 -7.64808 -1.01499
thorax -2.51166 -3.79831 -0.0235433
lowerneck -7.8981 -4.27403 0.354328
upperneck 3.3512 -5.97262 4.02525
head 2.55395 -2.85888 0.952747
lclavicle -8.05745e-15 1.18239e-14 3.58256e-30
lhumerus 33.8509 -47.5368 28.3863
lradius 86.486 -0 0
lwrist 29.7984 0 0
lhand -17.9666 -4.18895 0.099687
lfingers 7.12502 -0 0
lthumb 8.30124 25.5915 0.0919154
rclavicle -8.05745e-15 1.18239e-14 3.58256e-30
rhumerus -45.4517 -10.1536 -28.0791
rradius 87.1697 -0 0
rwrist -15.0475 0 0
rhand -31.7996 -44.7711 -0.13743
rfingers 7.12502 -0 0
rthumb -5.05481 -74.6696 -0.134243
686
root 5.30799 17.2545 1.96263 14.6678 -34.0955 1.52922
lfemur -41.9116 21.1064 8.74852
ltibia 117.296 -0 0
lfoot 9.20172 -4.03571 0.281713
ltoes 19.8588 -0 0
rfemur -18.1107 -7.38795 18.8822
rtibia 21.9055 -0 0
rfoot -3.95665 0.792998 1.12087
rtoes -0.714039 0 0
lowerback 1.29753 -5.52193 -1.57662
upperback -1.90151 -7.48502 -1.23665
thorax -2.63061 -3.71586 -0.148771
lowerneck -7.66214 -4.30891 0.331316
upperneck 3.52939 -6.03335 4.22451
head 2.58113 -2.88225 1.02107
lclavicle -1.08992e-14 1.36699e-14 3.38042e-30
lhumerus 34.5727 -44.7939 25.7757
lradius 86.2059 -0 0
lwrist 29.9182 0 0
lhand -18.4826 -4.52765 0.0951394
lfingers 7.12502 -0 0
lthumb 7.80334 25.2734 0.0875776
rclavicle -1.08992e-14 1.36699e-14 3.38042e-30
rhumerus -44.615 -9.94088 -26.2242
rradius 89.164 -0 0
rwrist -14.4919 0 0
rhand -32.2176 -44.3855 -0.133386
rfingers 7.12502 -0 0
rthumb -5.4585 -74.2765 -0.13017
